<svg width="631" height="343" viewBox="0 0 631 343" fill="none" xmlns="http://www.w3.org/2000/svg">
<g clip-path="url(#clip0)">
<path d="M317.525 343C488.626 343 627.33 333.821 627.33 322.498C627.33 311.174 488.626 301.995 317.525 301.995C146.424 301.995 7.71927 311.174 7.71927 322.498C7.71927 333.821 146.424 343 317.525 343Z" fill="#F2F2F2"/>
<path d="M305.651 98.0508C255.175 98.0508 218.934 130.423 218.934 205.958C218.934 291.564 255.175 314.225 305.651 314.225C356.126 314.225 394.526 289.406 394.526 205.958C394.526 116.755 356.126 98.0508 305.651 98.0508ZM305.982 285.809C271.022 285.809 252.757 265.306 252.757 206.013C252.757 153.696 271.769 126.107 306.73 126.107C341.691 126.107 360.703 144.229 360.703 206.013C360.703 263.811 340.943 285.809 305.982 285.809Z" fill="#2B2D42"/>
<path d="M188.709 254.516H167.839V193.083C167.839 189.82 166.543 186.69 164.235 184.383C161.926 182.076 158.796 180.78 155.532 180.78H150.642C149.025 180.78 147.425 181.098 145.932 181.716C144.439 182.334 143.082 183.241 141.939 184.383C140.796 185.526 139.889 186.882 139.271 188.375C138.652 189.867 138.334 191.467 138.334 193.083V254.516H79.4681C78.2571 254.516 77.0667 254.203 76.0123 253.608C74.9579 253.012 74.0753 252.155 73.4503 251.118C72.8252 250.081 72.4788 248.9 72.4447 247.69C72.4107 246.48 72.69 245.282 73.2558 244.211L135.559 126.334C136.336 124.864 136.806 123.253 136.943 121.596C137.079 119.94 136.879 118.273 136.353 116.696C135.827 115.119 134.987 113.665 133.883 112.422C132.78 111.178 131.436 110.171 129.932 109.462L126.254 107.725C123.399 106.377 120.134 106.178 117.135 107.169C114.136 108.161 111.634 110.266 110.145 113.05L34.158 255.147C32.864 257.567 32.1871 260.268 32.1871 263.012C32.1871 265.202 32.6187 267.372 33.4574 269.396C34.2961 271.42 35.5254 273.259 37.0751 274.808C38.6248 276.357 40.4646 277.586 42.4894 278.425C44.5142 279.263 46.6843 279.694 48.8759 279.694H138.334V318.541C138.334 320.478 138.716 322.395 139.457 324.185C140.198 325.974 141.285 327.6 142.655 328.969C144.025 330.338 145.651 331.425 147.441 332.166C149.231 332.907 151.149 333.288 153.087 333.288C155.024 333.288 156.942 332.907 158.732 332.166C160.522 331.425 162.149 330.338 163.518 328.969C164.888 327.6 165.975 325.974 166.716 324.185C167.458 322.395 167.839 320.478 167.839 318.541V279.695H188.709C192.049 279.695 195.252 278.368 197.614 276.007C199.976 273.646 201.303 270.444 201.303 267.105C201.303 263.766 199.976 260.564 197.614 258.203C195.252 255.843 192.049 254.516 188.709 254.516Z" fill="#E994A0"/>
<path d="M575.156 254.516H554.287V193.083C554.287 189.82 552.99 186.69 550.682 184.383C548.374 182.076 545.243 180.78 541.979 180.78H537.089C535.473 180.78 533.872 181.098 532.379 181.716C530.886 182.334 529.529 183.241 528.386 184.383C527.243 185.526 526.337 186.882 525.718 188.375C525.1 189.867 524.781 191.467 524.781 193.083V254.516H465.915C464.704 254.516 463.514 254.203 462.459 253.608C461.405 253.012 460.523 252.155 459.897 251.118C459.272 250.081 458.926 248.9 458.892 247.69C458.858 246.48 459.137 245.282 459.703 244.211L522.006 126.334C522.783 124.864 523.254 123.253 523.39 121.596C523.527 119.94 523.326 118.273 522.8 116.696C522.274 115.119 521.434 113.665 520.331 112.422C519.227 111.178 517.883 110.171 516.379 109.462L512.702 107.725C509.846 106.377 506.581 106.178 503.582 107.169C500.584 108.161 498.081 110.266 496.592 113.05L420.605 255.147C419.311 257.567 418.634 260.268 418.634 263.012C418.634 267.436 420.393 271.68 423.522 274.808C426.652 277.937 430.897 279.694 435.323 279.694H524.781V318.541C524.781 322.452 526.336 326.203 529.102 328.969C531.869 331.735 535.621 333.288 539.534 333.288C543.447 333.288 547.199 331.735 549.966 328.969C552.732 326.203 554.287 322.452 554.287 318.541V279.695H575.156C578.496 279.695 581.699 278.368 584.061 276.007C586.423 273.646 587.75 270.444 587.75 267.105C587.75 263.767 586.423 260.564 584.061 258.203C581.7 255.843 578.496 254.516 575.156 254.516Z" fill="#E994A0"/>
<path d="M194.466 247.322H173.597V185.889C173.597 184.273 173.278 182.673 172.66 181.181C172.041 179.688 171.135 178.332 169.992 177.189C168.849 176.047 167.492 175.141 165.999 174.522C164.506 173.904 162.905 173.586 161.289 173.586H156.399C153.135 173.586 150.004 174.882 147.696 177.189C145.388 179.497 144.091 182.626 144.091 185.889V247.322H85.2252C84.0142 247.322 82.8238 247.009 81.7694 246.414C80.715 245.819 79.8325 244.961 79.2074 243.924C78.5823 242.887 78.236 241.706 78.2019 240.496C78.1678 239.286 78.4472 238.088 79.0129 237.018L141.316 119.14C142.093 117.671 142.564 116.059 142.7 114.402C142.836 112.746 142.636 111.079 142.11 109.502C141.584 107.925 140.744 106.471 139.641 105.228C138.537 103.984 137.193 102.977 135.689 102.268L132.011 100.532C129.156 99.1835 125.891 98.9844 122.892 99.9756C119.894 100.967 117.391 103.072 115.902 105.857L39.9151 247.953C38.6212 250.373 37.9442 253.074 37.9442 255.818V255.818C37.9442 260.242 39.7025 264.486 42.8323 267.614C45.962 270.743 50.2069 272.501 54.6331 272.501H144.091V311.347C144.091 313.284 144.473 315.202 145.214 316.991C145.956 318.78 147.042 320.406 148.412 321.775C149.782 323.145 151.408 324.231 153.198 324.972C154.988 325.713 156.907 326.095 158.844 326.095H158.844C162.757 326.095 166.509 324.541 169.276 321.775C172.042 319.009 173.597 315.258 173.597 311.347V272.501H194.466C196.12 272.501 197.758 272.175 199.286 271.542C200.813 270.91 202.202 269.982 203.371 268.813C204.541 267.644 205.468 266.257 206.101 264.729C206.734 263.202 207.06 261.565 207.06 259.912V259.912C207.06 258.258 206.734 256.621 206.101 255.094C205.468 253.566 204.541 252.179 203.371 251.01C202.202 249.841 200.813 248.913 199.286 248.281C197.758 247.648 196.12 247.322 194.466 247.322V247.322Z" stroke="#3F3D56" stroke-miterlimit="10"/>
<path d="M585.951 247.322H565.081V185.889C565.081 182.626 563.785 179.497 561.476 177.189C559.168 174.882 556.038 173.586 552.774 173.586H547.884C546.267 173.586 544.667 173.904 543.174 174.522C541.68 175.141 540.324 176.047 539.181 177.189C538.038 178.332 537.131 179.688 536.513 181.181C535.894 182.673 535.576 184.273 535.576 185.889V247.322H476.71C475.499 247.322 474.309 247.009 473.254 246.414C472.2 245.819 471.317 244.961 470.692 243.924C470.067 242.887 469.721 241.706 469.687 240.496C469.653 239.286 469.932 238.088 470.498 237.018L532.801 119.14C533.577 117.671 534.048 116.059 534.185 114.402C534.321 112.746 534.12 111.079 533.595 109.502C533.069 107.925 532.229 106.471 531.125 105.228C530.022 103.984 528.678 102.977 527.174 102.268L523.496 100.532C520.64 99.1835 517.375 98.9844 514.377 99.9756C511.378 100.967 508.876 103.072 507.387 105.857L431.4 247.953C430.106 250.373 429.429 253.074 429.429 255.818C429.429 260.242 431.187 264.486 434.317 267.614C437.447 270.743 441.692 272.501 446.118 272.501H535.576V311.347C535.576 315.258 537.13 319.009 539.897 321.775C542.664 324.541 546.416 326.095 550.329 326.095V326.095C554.241 326.095 557.994 324.541 560.76 321.775C563.527 319.009 565.081 315.258 565.081 311.347V272.501H585.951C587.605 272.501 589.242 272.175 590.77 271.542C592.298 270.91 593.686 269.982 594.856 268.813C596.025 267.644 596.953 266.257 597.586 264.729C598.219 263.202 598.544 261.565 598.544 259.912V259.912C598.544 256.573 597.218 253.371 594.856 251.01C592.494 248.649 589.291 247.322 585.951 247.322V247.322Z" stroke="#3F3D56" stroke-miterlimit="10"/>
<path d="M317.165 91.5764C266.689 91.5764 230.448 123.949 230.448 199.484C230.448 285.09 266.689 307.75 317.165 307.75C367.641 307.75 406.041 282.932 406.041 199.484C406.041 110.28 367.641 91.5764 317.165 91.5764ZM317.497 279.335C282.536 279.335 264.271 258.832 264.271 199.539C264.271 147.222 283.284 119.632 318.244 119.632C353.205 119.632 372.218 137.755 372.218 199.539C372.217 257.337 352.457 279.335 317.497 279.335V279.335Z" stroke="#3F3D56" stroke-miterlimit="10"/>
<path d="M276.705 18.289C280.89 18.289 284.282 14.8979 284.282 10.7148C284.282 6.53167 280.89 3.14056 276.705 3.14056C272.521 3.14056 269.128 6.53167 269.128 10.7148C269.128 14.8979 272.521 18.289 276.705 18.289Z" fill="#2F2E41"/>
<path d="M295.186 55.0518C306.923 55.0518 316.438 42.728 316.438 27.5259C316.438 12.3238 306.923 0 295.186 0C283.448 0 273.933 12.3238 273.933 27.5259C273.933 42.728 283.448 55.0518 295.186 55.0518Z" fill="#2F2E41"/>
<path opacity="0.1" d="M295.186 46.7386C284.539 46.7386 275.722 36.5991 274.174 23.3693C274.013 24.7489 273.933 26.1368 273.933 27.5259C273.933 42.728 283.448 55.0517 295.186 55.0517C306.923 55.0517 316.438 42.728 316.438 27.5259C316.439 26.1368 316.358 24.7489 316.197 23.3693C314.65 36.5991 305.832 46.7386 295.186 46.7386Z" fill="black"/>
<path d="M338.432 108.137C337.976 110.011 336.008 111.513 333.828 112.562C329.246 114.768 323.594 115.426 318.112 115.647C316.714 115.732 315.311 115.706 313.916 115.569C311.214 115.308 308.679 114.143 306.721 112.263C306.582 112.172 306.467 112.047 306.389 111.9C306.31 111.753 306.271 111.588 306.273 111.421C306.276 111.254 306.321 111.091 306.403 110.946C306.486 110.802 306.604 110.68 306.747 110.593C309.666 107.389 314.536 105.423 319.442 104.009C323.163 102.936 329.651 100.157 333.708 100.532C337.638 100.895 339.008 105.769 338.432 108.137Z" fill="#3F3D56"/>
<path opacity="0.1" d="M338.432 108.137C337.976 110.011 336.008 111.513 333.828 112.562C329.246 114.768 323.594 115.426 318.112 115.647C316.714 115.732 315.311 115.706 313.916 115.569C311.214 115.308 308.679 114.143 306.721 112.263C306.582 112.172 306.467 112.047 306.389 111.9C306.31 111.753 306.271 111.588 306.273 111.421C306.276 111.254 306.321 111.091 306.403 110.946C306.486 110.802 306.604 110.68 306.747 110.593C309.666 107.389 314.536 105.423 319.442 104.009C323.163 102.936 329.651 100.157 333.708 100.532C337.638 100.895 339.008 105.769 338.432 108.137Z" fill="black"/>
<path d="M280.172 94.1242C278.773 96.8644 278.52 100.048 279.468 102.975C280.432 105.879 282.237 108.433 284.654 110.311C290.582 115.062 298.742 115.716 306.34 115.65C312.999 115.592 319.648 115.136 326.253 114.285C328.466 114.089 330.641 113.585 332.714 112.786C335.194 111.713 337.373 109.746 338.256 107.193C339.139 104.64 338.512 101.514 336.415 99.8108C334.573 98.3139 332.032 98.108 329.663 97.9657L316.103 97.1511C317.443 95.7959 319.226 95.0293 320.858 94.0441C323.022 92.737 324.46 90.5423 326.034 88.5637C328.459 85.6668 331.097 82.9552 333.926 80.4518C334.368 82.9824 335.969 85.0605 337.854 86.8065C339.739 88.5526 341.911 89.9583 343.87 91.6208C348.615 95.6473 352.031 101.112 357.021 104.831C360.454 103.929 363.663 102.328 366.447 100.127L364.507 96.6151C364.346 96.2537 364.094 95.9398 363.777 95.7035C363.228 95.3659 362.52 95.5398 361.882 95.4443C360.179 95.1889 359.435 93.2227 358.766 91.6356C356.931 87.2783 353.417 83.8977 350.416 80.2437C348.201 77.5464 346.236 74.6532 344.545 71.6C343.537 69.779 342.614 67.883 341.246 66.3142C339.878 64.7454 337.961 63.512 335.879 63.5076C334.039 63.5037 332.343 64.4373 330.761 65.3764C325.944 68.2367 321.309 71.3933 316.883 74.828C314.567 76.6255 312.265 78.5246 309.548 79.6269C308.404 80.0909 307.198 80.408 306.101 80.9726C304.178 81.9615 302.719 83.6347 301.149 85.12C295.547 90.4174 287.878 93.8497 280.172 94.1242Z" fill="#3F3D56"/>
<path d="M308.525 56.4188C308.462 58.038 308.117 59.634 307.507 61.1351C307.197 61.8838 306.737 62.5607 306.154 63.1236C305.571 63.6865 304.878 64.1233 304.119 64.4068C303.041 64.6955 301.911 64.7322 300.817 64.514C299.862 64.4143 298.943 64.1011 298.126 63.5977C296.855 62.7239 296.221 61.1647 295.99 59.6387C295.759 58.1146 295.862 56.5573 295.714 55.0221C295.57 53.7822 295.334 52.5546 295.008 51.3496C294.909 50.9487 294.807 50.5497 294.707 50.1506C294.609 49.7516 294.513 49.3526 294.424 48.9535C294.343 48.5785 294.267 48.2017 294.203 47.8229C294.149 47.5033 294.101 47.1819 294.066 46.8586C294.033 45.9002 293.874 44.9503 293.591 44.034C293.325 43.4397 292.993 42.8776 292.6 42.3584C292.432 42.1183 292.27 41.8781 292.12 41.6287C291.687 40.9806 291.486 40.2052 291.549 39.4285C291.567 39.3084 291.596 39.1903 291.636 39.0756C291.65 39.0313 291.667 38.987 291.686 38.9445C291.852 38.8994 292.005 38.8143 292.13 38.6968C292.256 38.5793 292.352 38.4328 292.408 38.2701C292.472 37.9207 292.442 37.5606 292.321 37.2264C292.183 36.7594 291.994 36.309 291.758 35.8833C291.602 35.6025 291.076 35.0964 291.072 34.7749C291.065 34.1283 292.329 33.6074 292.841 33.3524C294.403 32.5703 296.146 32.2171 297.889 32.329C299.008 32.4047 300.22 32.7483 300.837 33.6849C301.392 34.5292 301.318 35.6228 301.554 36.6038C301.579 36.7464 301.639 36.8804 301.73 36.9936C301.85 37.1035 302.002 37.1732 302.164 37.1931C302.438 37.2475 302.718 37.2588 302.996 37.2264H302.998C303.071 37.2206 303.144 37.2101 303.216 37.195C303.647 37.1153 304.055 36.9391 304.409 36.6795C304.639 36.6186 304.87 36.5687 305.102 36.5299C305.112 36.5289 305.121 36.5271 305.13 36.5244C306.056 39.4451 306.176 42.5764 306.934 45.5506C307.309 47.0304 307.847 48.4916 307.923 50.0139C307.928 50.0804 307.93 50.1487 307.932 50.2171C307.943 50.7066 307.904 51.1999 307.924 51.6876C307.931 51.9072 307.956 52.1259 307.998 52.3416C308.081 52.6884 308.184 53.0302 308.307 53.365L308.312 53.3816C308.348 53.4888 308.381 53.5978 308.409 53.7068C308.429 53.7862 308.447 53.8638 308.462 53.9433L308.464 53.9488C308.601 54.7651 308.621 55.5967 308.525 56.4188Z" fill="#FBBEBE"/>
<path d="M295.555 37.317C301.577 37.317 306.459 32.4371 306.459 26.4175C306.459 20.3978 301.577 15.5179 295.555 15.5179C289.534 15.5179 284.652 20.3978 284.652 26.4175C284.652 32.4371 289.534 37.317 295.555 37.317Z" fill="#FBBEBE"/>
<path d="M364.779 85.8031C364.463 82.8295 363.406 79.9826 361.704 77.5232C361.987 79.2043 362.27 80.8848 362.554 82.5647C362.201 82.6668 361.826 82.6637 361.475 82.5557C361.124 82.4478 360.812 82.2396 360.577 81.9569C360.118 81.3839 359.767 80.7323 359.54 80.0338C358.301 76.9598 356.682 74.0533 354.719 71.3825C347.777 70.8043 340.916 67.928 334.811 64.575C328.706 61.2238 322.991 57.2058 316.967 53.7124C315.922 53.0813 314.834 52.5256 313.711 52.0497C311.826 51.2942 309.71 50.9025 307.922 50.0139C307.802 49.9548 307.682 49.892 307.564 49.8274C307.16 49.6079 306.778 49.3512 306.422 49.0607C306.229 48.9045 306.047 48.7367 305.875 48.5582C304.983 47.5213 304.276 46.339 303.785 45.063C302.826 42.9422 302.484 40.3836 301.526 38.2628C301.966 37.8517 302.461 37.503 302.996 37.2264H302.997C303.075 37.1858 303.153 37.147 303.232 37.11C303.611 36.9317 304.005 36.7877 304.409 36.6796C304.639 36.6186 304.87 36.5687 305.102 36.53C305.112 36.529 305.121 36.5271 305.13 36.5244C306.21 36.3485 307.316 36.436 308.355 36.7793C309.874 37.2929 311.155 38.3182 312.432 39.2881C314.506 40.7491 316.496 42.3269 318.392 44.0137C319.445 45.0223 320.406 46.1307 321.539 47.0471C322.48 47.7733 323.473 48.4309 324.509 49.0145C330.639 52.6649 336.769 56.3147 342.9 59.9639C344.976 61.1998 347.053 62.4357 349.082 63.7436C352.165 65.7314 355.136 67.8854 358.106 70.0376C359.856 71.3049 361.606 72.5728 363.355 73.8414C363.928 74.2073 364.432 74.6727 364.842 75.2158C365.204 75.8324 365.43 76.5199 365.502 77.2313C365.941 80.1056 365.693 83.0429 364.779 85.8031Z" fill="#FBBEBE"/>
<path d="M311.229 64.6156C310.493 67.9131 307.159 69.9065 305.417 72.8031C303.251 76.3981 304.134 80.5769 304.947 84.6947C303.461 85.9749 301.975 87.2552 300.488 88.5354C299.667 89.2392 298.847 89.9468 297.963 90.5694C296.675 91.4321 295.329 92.2049 293.935 92.8823C292.619 93.5584 291.303 94.2352 289.987 94.9125C288.764 95.6001 287.468 96.149 286.123 96.5493C283.53 97.2144 280.777 96.7488 278.212 95.9785C277.909 95.8992 277.618 95.7805 277.347 95.6256C277.187 95.5302 277.047 95.404 276.936 95.2543C276.683 94.8011 276.592 94.2756 276.676 93.7635C276.936 89.448 277.992 85.223 279.043 81.0295C279.605 78.5137 280.361 76.045 281.303 73.6455C282.228 71.5895 283.29 69.5984 284.484 67.6859C285.801 65.2796 287.362 63.0146 289.141 60.9264C290.007 60.1227 290.736 59.1829 291.299 58.1442C291.955 56.6479 291.702 54.9316 291.835 53.3023C291.937 52.0781 292.262 50.8828 292.794 49.7756V49.7738C293.079 49.1774 293.422 48.6106 293.818 48.0816C293.998 48.4991 294.177 48.916 294.356 49.3322C294.474 49.6057 294.591 49.8785 294.707 50.1507C294.859 50.5017 295.009 50.8514 295.158 51.2C295.589 52.2013 296.019 53.2019 296.448 54.202C296.912 55.4615 297.573 56.6394 298.407 57.6917C298.788 58.2305 299.302 58.6612 299.9 58.942C300.497 59.2227 301.157 59.3437 301.815 59.2933C302.474 59.2428 303.107 59.0226 303.655 58.6542C304.203 58.2857 304.645 57.7816 304.94 57.191C305.561 56.0886 306.011 54.8983 306.274 53.6607C306.639 52.1538 306.689 50.5879 306.422 49.0607C305.977 46.1197 304.725 43.1159 303.816 40.3836C303.446 39.4726 303.232 38.5059 303.182 37.5239C303.184 37.4135 303.195 37.3035 303.216 37.195C303.221 37.1673 303.227 37.1378 303.232 37.1101C303.611 36.9317 304.005 36.7877 304.409 36.6796C304.639 36.6186 304.87 36.5688 305.102 36.53C305.903 40.8602 306.704 45.1905 307.507 49.5207C307.525 49.6223 307.546 49.7239 307.564 49.8274C307.679 50.4481 307.795 51.0688 307.924 51.6877C308.041 52.2493 308.167 52.809 308.307 53.3651L308.313 53.3817C308.361 53.5702 308.41 53.7567 308.462 53.9433L308.464 53.9489C308.606 54.4587 308.765 54.9649 308.945 55.4637C310.031 58.4694 311.925 61.4954 311.229 64.6156Z" fill="#FD3D57"/>
<path d="M355.479 110.957C355.445 111.592 355.568 112.226 355.837 112.802C356.52 114.049 358.157 114.332 359.574 114.449C367.85 115.129 376.177 114.875 384.397 113.693C384.843 113.662 385.276 113.528 385.66 113.301C386.829 112.482 386.109 110.486 384.833 109.847C383.556 109.208 382.042 109.362 380.642 109.085C379.251 108.735 377.926 108.161 376.72 107.385C373.88 105.754 371.082 104.054 368.326 102.284C366.684 101.23 364.747 100.106 362.899 100.731C357.892 102.424 355.446 105.558 355.479 110.957Z" fill="#3F3D56"/>
<path d="M294.467 48.7227V48.7245C294.454 48.8021 294.441 48.8778 294.424 48.9536C294.404 49.0792 294.38 49.2067 294.356 49.3323C294.127 50.5053 293.846 51.6729 293.523 52.833C292.635 56.0382 291.447 59.1917 290.268 62.299C287.104 70.6306 283.94 78.9629 280.775 87.2958C279.976 89.3944 279.18 91.4949 278.273 93.551C277.969 94.2364 277.657 94.9273 277.347 95.6256C276.234 98.1251 275.166 100.706 274.811 103.366C274.48 105.117 274.442 106.91 274.698 108.674C275.053 110.418 276.112 112.121 277.77 112.766C278.579 113.081 279.738 113.504 279.516 114.345C279.396 114.807 278.871 115.032 278.4 115.11C277.778 115.209 277.141 115.17 276.536 114.996C275.93 114.821 275.37 114.516 274.896 114.101C274.011 113.316 273.331 112.095 272.154 111.964C271.339 111.875 270.588 112.363 269.842 112.705C266.796 114.096 263.248 113.122 260.049 112.134C260.3 110.839 261.601 109.985 262.893 109.727C264.185 109.466 265.521 109.651 266.839 109.616C267.261 109.638 267.679 109.531 268.038 109.307C268.36 109.012 268.585 108.627 268.685 108.203C269.534 105.688 270.165 103.106 270.572 100.484C270.997 97.7446 271.174 94.9624 271.78 92.256C272.252 90.1445 272.98 88.0994 273.604 86.0267C274.812 81.759 275.804 77.4331 276.576 73.0655C276.966 71.2509 277.246 69.4143 277.413 67.5658C277.518 66.0325 277.469 64.4918 277.616 62.964C277.865 60.9764 278.279 59.0131 278.856 57.0949C279.422 55.0019 279.987 52.91 280.551 50.8194C281.388 47.725 282.286 44.5106 284.408 42.1053C285.145 41.2586 286.048 40.5721 287.061 40.0884C288.074 39.6048 289.176 39.3343 290.298 39.2936C290.718 39.2931 291.138 39.3383 291.549 39.4285C291.617 39.4451 291.686 39.4617 291.754 39.4802C292.202 39.5972 292.631 39.775 293.031 40.0086C293.685 39.5929 294.018 39.7389 294.452 40.3799C294.833 41.0583 295.012 41.8311 294.97 42.6078C295.006 44.6578 294.838 46.7062 294.467 48.7227Z" fill="#FBBEBE"/>
<path d="M295.186 51.1723L295.158 51.2L295.008 51.3496L293.523 52.833L292.794 49.7756L290.298 39.2936C290.718 39.2931 291.138 39.3383 291.549 39.4285C291.567 39.3084 291.596 39.1902 291.636 39.0756L291.754 39.4802L292.6 42.3584L294.203 47.8229L294.467 48.7226V48.7245L295.186 51.1723Z" fill="#6C63FF"/>
<path d="M304.614 17.7319C304.613 18.7025 304.421 19.6633 304.048 20.5595C303.675 21.4556 303.129 22.2695 302.441 22.9546C302.192 23.204 301.925 23.4348 301.642 23.6453C300.367 24.6063 298.814 25.1264 297.217 25.1272H288.351C286.391 25.1242 284.514 24.3441 283.129 22.9582C281.745 21.5723 280.968 19.6939 280.968 17.7355C280.968 15.7771 281.745 13.8987 283.129 12.5129C284.514 11.127 286.391 10.3469 288.351 10.3439H297.217C299.176 10.349 301.053 11.1288 302.439 12.513C303.826 13.8972 304.607 15.7734 304.614 17.7319Z" fill="#2F2E41"/>
<path d="M312.927 18.289C317.112 18.289 320.504 14.8979 320.504 10.7148C320.504 6.53167 317.112 3.14056 312.927 3.14056C308.742 3.14056 305.35 6.53167 305.35 10.7148C305.35 14.8979 308.742 18.289 312.927 18.289Z" fill="#2F2E41"/>
<path opacity="0.1" d="M312.742 3.14056C312.649 3.14056 312.557 3.14425 312.465 3.14757C314.425 3.2188 316.281 4.04724 317.642 5.45859C319.004 6.86994 319.765 8.75416 319.765 10.7148C319.765 12.6755 319.004 14.5597 317.642 15.971C316.281 17.3824 314.425 18.2108 312.465 18.282C312.557 18.2853 312.649 18.289 312.742 18.289C314.752 18.289 316.679 17.491 318.1 16.0706C319.521 14.6501 320.319 12.7236 320.319 10.7148C320.319 8.70599 319.521 6.77945 318.1 5.35901C316.679 3.93856 314.752 3.14056 312.742 3.14056Z" fill="black"/>
<path opacity="0.1" d="M276.705 3.14056C276.798 3.14056 276.89 3.14425 276.983 3.14757C275.023 3.2188 273.167 4.04724 271.805 5.45859C270.444 6.86994 269.683 8.75416 269.683 10.7148C269.683 12.6755 270.444 14.5597 271.805 15.971C273.167 17.3824 275.023 18.2108 276.983 18.282C276.89 18.2853 276.798 18.289 276.705 18.289C274.697 18.2873 272.771 17.4885 271.352 16.0682C269.932 14.648 269.135 12.7225 269.135 10.7148C269.135 8.70715 269.932 6.78162 271.352 5.36137C272.771 3.94111 274.697 3.14233 276.705 3.14056Z" fill="black"/>
<path opacity="0.1" d="M301.642 23.6453C300.367 24.6063 298.814 25.1265 297.216 25.1272H288.35C286.753 25.1265 285.2 24.6063 283.925 23.6453H301.642Z" fill="black"/>
<path d="M358.896 78.5276C358.896 78.5276 360.806 84.0297 362.554 82.5647L361.161 75.3729L358.896 78.5276Z" fill="#FBBEBE"/>
<path d="M591.34 246.316C593.119 246.963 595.024 247.187 596.905 246.972C598.786 246.757 600.591 246.109 602.178 245.077C603.765 244.046 605.091 242.66 606.051 241.029C607.011 239.398 607.579 237.567 607.71 235.679C607.841 233.791 607.532 231.899 606.807 230.151C606.082 228.403 604.96 226.847 603.531 225.606C602.101 224.366 600.403 223.474 598.57 223.001C596.737 222.528 594.819 222.488 592.968 222.882L593.274 229.171L590.297 223.781C587.376 225.153 585.119 227.629 584.023 230.664C583.633 231.727 583.397 232.839 583.32 233.969C583.132 236.619 583.813 239.258 585.26 241.486C586.708 243.714 588.842 245.41 591.34 246.316Z" fill="#57B894"/>
<path d="M606.068 319.259C605.018 313.91 609.571 309.169 614.068 306.087C618.565 303.005 623.82 299.976 625.355 294.746C627.56 287.229 620.991 280.344 615.878 274.408C612.085 270.002 608.827 265.162 606.174 259.99C605.11 257.916 604.132 255.748 603.852 253.435C603.449 250.102 604.52 246.787 605.599 243.608C609.193 233.02 613.036 222.521 617.127 212.111" stroke="#3F3D56" stroke-miterlimit="10"/>
<path d="M591.843 244.697C593.623 245.344 595.528 245.568 597.408 245.353C599.289 245.138 601.094 244.489 602.681 243.458C604.269 242.427 605.595 241.041 606.555 239.41C607.515 237.779 608.083 235.948 608.214 234.06C608.345 232.172 608.036 230.279 607.31 228.531C606.585 226.784 605.463 225.228 604.034 223.987C602.605 222.746 600.906 221.855 599.073 221.382C597.24 220.909 595.323 220.868 593.471 221.263L593.777 227.552L590.801 222.162C587.879 223.534 585.622 226.01 584.526 229.044C584.137 230.107 583.9 231.22 583.823 232.35C583.635 235 584.316 237.639 585.764 239.867C587.211 242.095 589.345 243.791 591.843 244.697V244.697Z" stroke="#3F3D56" stroke-miterlimit="10"/>
<path d="M604.574 209.939C605.273 208.013 606.444 206.294 607.982 204.94C609.519 203.586 611.373 202.64 613.372 202.19L614.379 208.169L616.244 201.89C618.835 201.928 621.347 202.789 623.416 204.347C625.486 205.905 627.006 208.081 627.759 210.559C628.511 213.038 628.456 215.691 627.601 218.136C626.746 220.581 625.137 222.691 623.004 224.162C620.871 225.633 618.326 226.389 615.736 226.319C613.146 226.25 610.645 225.36 608.594 223.777C606.543 222.194 605.049 220.001 604.326 217.513C603.604 215.026 603.69 212.373 604.574 209.939H604.574Z" fill="#57B894"/>
<path d="M605.246 207.78C605.944 205.854 607.116 204.135 608.653 202.781C610.191 201.427 612.044 200.481 614.043 200.032L615.05 206.01L616.916 199.731C619.506 199.769 622.018 200.63 624.087 202.188C626.157 203.746 627.678 205.922 628.43 208.4C629.182 210.879 629.127 213.532 628.272 215.977C627.418 218.422 625.808 220.533 623.675 222.003C621.542 223.474 618.997 224.23 616.407 224.16C613.817 224.091 611.316 223.201 609.265 221.618C607.215 220.035 605.72 217.842 604.997 215.354C604.275 212.867 604.362 210.215 605.245 207.78H605.246Z" stroke="#3F3D56" stroke-miterlimit="10"/>
<path d="M613.732 274.529C616.554 275.552 619.653 275.502 622.44 274.387C625.227 273.273 627.506 271.172 628.843 268.486C630.179 265.799 630.481 262.715 629.689 259.821C628.898 256.927 627.068 254.426 624.55 252.793L623.116 257.619L622.1 251.569C622.09 251.564 622.079 251.56 622.069 251.557C620.559 251.009 618.957 250.763 617.353 250.834C615.749 250.905 614.174 251.292 612.72 251.971C611.265 252.651 609.958 253.61 608.875 254.795C607.791 255.979 606.951 257.365 606.404 258.874C605.856 260.383 605.611 261.985 605.683 263.588C605.755 265.192 606.143 266.766 606.823 268.219C607.504 269.673 608.464 270.979 609.65 272.061C610.835 273.144 612.223 273.982 613.732 274.529H613.732Z" fill="#57B894"/>
<path d="M614.314 272.342C617.136 273.365 620.235 273.315 623.022 272.2C625.808 271.086 628.087 268.985 629.424 266.299C630.761 263.613 631.062 260.529 630.271 257.635C629.479 254.74 627.65 252.239 625.132 250.606L623.698 255.432L622.681 249.382C622.671 249.378 622.661 249.374 622.65 249.371C621.141 248.822 619.539 248.577 617.934 248.648C616.33 248.719 614.756 249.105 613.301 249.784C611.846 250.464 610.54 251.423 609.456 252.608C608.372 253.792 607.533 255.178 606.985 256.687C606.438 258.196 606.193 259.798 606.265 261.402C606.337 263.005 606.724 264.579 607.405 266.033C608.085 267.486 609.046 268.792 610.231 269.875C611.417 270.957 612.804 271.796 614.314 272.342H614.314Z" stroke="#3F3D56" stroke-miterlimit="10"/>
<path d="M601.007 294.82C601.492 297.58 602.912 300.089 605.028 301.926C607.144 303.764 609.827 304.818 612.628 304.912C615.43 305.006 618.178 304.135 620.413 302.444C622.648 300.753 624.233 298.345 624.903 295.625C625.572 292.904 625.286 290.036 624.091 287.502C622.897 284.967 620.867 282.92 618.342 281.704C615.817 280.488 612.95 280.177 610.223 280.823C607.496 281.469 605.073 283.033 603.363 285.252L608.809 293.446L601.367 289.097C600.79 290.949 600.667 292.911 601.007 294.82Z" fill="#57B894"/>
<path d="M601.511 293.201C601.996 295.961 603.415 298.47 605.531 300.307C607.647 302.144 610.331 303.199 613.132 303.293C615.933 303.387 618.681 302.516 620.916 300.825C623.151 299.134 624.736 296.726 625.406 294.006C626.076 291.285 625.789 288.417 624.595 285.883C623.4 283.348 621.37 281.301 618.845 280.085C616.32 278.869 613.453 278.558 610.726 279.204C607.999 279.85 605.577 281.414 603.866 283.633L609.312 291.827L601.871 287.478C601.294 289.329 601.17 291.292 601.511 293.201V293.201Z" stroke="#3F3D56" stroke-miterlimit="10"/>
<path d="M5.29016 276.081C6.45907 276.506 7.71072 276.654 8.94643 276.513C10.1821 276.371 11.3682 275.945 12.411 275.267C13.4538 274.59 14.3249 273.679 14.9557 272.608C15.5864 271.536 15.9596 270.333 16.0458 269.093C16.1319 267.852 15.9287 266.609 15.4522 265.46C14.9756 264.312 14.2387 263.29 13.2996 262.475C12.3605 261.66 11.2448 261.074 10.0404 260.763C8.83612 260.452 7.57608 260.426 6.35965 260.685L6.56066 264.817L4.605 261.276C2.68563 262.177 1.20284 263.804 0.482468 265.797C0.226635 266.496 0.0711074 267.227 0.0205253 267.969C-0.102917 269.71 0.344735 271.444 1.29564 272.908C2.24655 274.372 3.64889 275.486 5.29016 276.081Z" fill="#57B894"/>
<path d="M14.9668 324.006C14.2765 320.492 17.2679 317.377 20.2228 315.352C23.1776 313.327 26.6302 311.337 27.6384 307.901C29.0873 302.962 24.7713 298.439 21.4121 294.538C18.9198 291.643 16.7795 288.464 15.0361 285.065C14.2781 283.731 13.7618 282.273 13.511 280.758C13.2461 278.569 13.9497 276.391 14.6586 274.302C17.0199 267.346 19.5446 260.448 22.2326 253.608" stroke="#3F3D56" stroke-miterlimit="10"/>
<path d="M5.62088 275.018C6.7898 275.442 8.04144 275.59 9.27715 275.449C10.5129 275.308 11.6989 274.881 12.7417 274.204C13.7845 273.526 14.6556 272.616 15.2864 271.544C15.9172 270.472 16.2903 269.269 16.3765 268.029C16.4626 266.788 16.2594 265.545 15.7829 264.397C15.3063 263.248 14.5694 262.226 13.6303 261.411C12.6912 260.596 11.5755 260.01 10.3712 259.699C9.16684 259.388 7.9068 259.362 6.69037 259.621L6.89139 263.753L4.93572 260.212C3.01635 261.113 1.53355 262.74 0.813187 264.734C0.557357 265.432 0.401832 266.163 0.351247 266.905C0.227796 268.646 0.675445 270.38 1.62636 271.844C2.57727 273.308 3.97961 274.422 5.62088 275.018V275.018Z" stroke="#3F3D56" stroke-miterlimit="10"/>
<path d="M13.9853 252.181C14.444 250.916 15.2139 249.786 16.2241 248.896C17.2342 248.007 18.4522 247.386 19.7656 247.09L20.4268 251.018L21.6528 246.893C23.3549 246.918 25.005 247.483 26.3647 248.507C27.7245 249.531 28.7236 250.96 29.2178 252.588C29.712 254.217 29.6758 255.96 29.1143 257.567C28.5527 259.173 27.495 260.56 26.0939 261.526C24.6927 262.492 23.0205 262.989 21.3188 262.943C19.6171 262.897 17.9739 262.313 16.6264 261.273C15.279 260.233 14.297 258.792 13.8223 257.157C13.3475 255.523 13.4046 253.78 13.9853 252.181Z" fill="#57B894"/>
<path d="M14.4262 250.762C14.885 249.497 15.6549 248.368 16.6651 247.478C17.6752 246.588 18.8931 245.967 20.2066 245.672L20.8678 249.6L22.0937 245.474C23.7959 245.499 25.4459 246.065 26.8057 247.089C28.1655 248.112 29.1646 249.542 29.6588 251.17C30.153 252.798 30.1168 254.542 29.5552 256.148C28.9937 257.755 27.936 259.141 26.5348 260.108C25.1337 261.074 23.4615 261.57 21.7598 261.525C20.0581 261.479 18.4149 260.894 17.0674 259.854C15.72 258.814 14.738 257.373 14.2632 255.739C13.7885 254.105 13.8456 252.362 14.4262 250.762V250.762Z" stroke="#3F3D56" stroke-miterlimit="10"/>
<path d="M20.0023 294.618C21.8561 295.29 23.8925 295.257 25.7234 294.524C27.5543 293.792 29.0516 292.412 29.93 290.647C30.8083 288.882 31.0063 286.856 30.4862 284.955C29.9661 283.053 28.7642 281.409 27.1097 280.337L26.1677 283.507L25.4997 279.533C25.4931 279.53 25.4863 279.527 25.4793 279.525C24.4877 279.165 23.4348 279.003 22.3808 279.049C21.3267 279.096 20.2921 279.35 19.3362 279.796C18.3802 280.243 17.5217 280.873 16.8095 281.651C16.0974 282.429 15.5457 283.34 15.1859 284.332C14.8261 285.323 14.6652 286.376 14.7126 287.43C14.7599 288.483 15.0145 289.517 15.4618 290.472C15.9091 291.428 16.5404 292.285 17.3194 292.997C18.0985 293.708 19.0102 294.259 20.0023 294.618Z" fill="#57B894"/>
<path d="M20.3844 293.181C22.2382 293.853 24.2746 293.82 26.1055 293.088C27.9364 292.355 29.4337 290.975 30.3121 289.21C31.1904 287.446 31.3884 285.419 30.8683 283.518C30.3482 281.616 29.1463 279.973 27.4918 278.9L26.5498 282.071L25.8819 278.096C25.8753 278.093 25.8684 278.09 25.8614 278.088C24.8701 277.729 23.8176 277.568 22.7641 277.615C21.7105 277.662 20.6766 277.916 19.7213 278.363C17.792 279.265 16.3001 280.896 15.5738 282.897C14.8475 284.899 14.9463 287.106 15.8485 289.035C16.7507 290.964 18.3823 292.455 20.3844 293.181V293.181Z" stroke="#3F3D56" stroke-miterlimit="10"/>
<path d="M11.6417 307.95C11.9604 309.763 12.8931 311.411 14.2833 312.618C15.6734 313.825 17.4366 314.518 19.277 314.58C21.1174 314.642 22.9232 314.069 24.3915 312.959C25.8598 311.848 26.9012 310.266 27.3413 308.478C27.7813 306.691 27.5931 304.806 26.8083 303.141C26.0234 301.476 24.6897 300.131 23.0307 299.332C21.3717 298.533 19.4883 298.329 17.6964 298.753C15.9046 299.178 14.3132 300.205 13.1892 301.663L16.7673 307.047L11.8783 304.189C11.4992 305.406 11.4181 306.695 11.6417 307.95Z" fill="#57B894"/>
<path d="M11.9724 306.886C12.2911 308.699 13.2238 310.347 14.614 311.554C16.0042 312.762 17.7673 313.454 19.6077 313.516C21.4482 313.578 23.2539 313.006 24.7222 311.895C26.1905 310.784 27.232 309.202 27.672 307.414C28.112 305.627 27.9238 303.742 27.139 302.077C26.3542 300.412 25.0204 299.067 23.3614 298.268C21.7024 297.469 19.819 297.265 18.0272 297.689C16.2353 298.114 14.6439 299.141 13.5199 300.599L17.098 305.983L12.209 303.125C11.8299 304.342 11.7488 305.632 11.9724 306.886V306.886Z" stroke="#3F3D56" stroke-miterlimit="10"/>
<path d="M282.464 200.268C287.978 200.268 292.448 194.485 292.448 187.352C292.448 180.218 287.978 174.435 282.464 174.435C276.95 174.435 272.48 180.218 272.48 187.352C272.48 194.485 276.95 200.268 282.464 200.268Z" fill="#2F2E41"/>
<path d="M336.79 200.561C342.304 200.561 346.774 194.779 346.774 187.645C346.774 180.512 342.304 174.729 336.79 174.729C331.276 174.729 326.806 180.512 326.806 187.645C326.806 194.779 331.276 200.561 336.79 200.561Z" fill="#2F2E41"/>
<path d="M329.155 225.806C329.155 231.642 321.003 236.374 310.948 236.374C300.894 236.374 292.742 231.642 292.742 225.806C292.742 220.752 298.856 216.524 307.025 215.491C308.326 215.32 309.636 215.235 310.948 215.239C313.147 215.232 315.339 215.468 317.485 215.943C324.31 217.464 329.155 221.309 329.155 225.806Z" fill="#2F2E41"/>
<path d="M284.813 197.332C290.327 197.332 294.797 191.549 294.797 184.416C294.797 177.283 290.327 171.5 284.813 171.5C279.299 171.5 274.829 177.283 274.829 184.416C274.829 191.549 279.299 197.332 284.813 197.332Z" stroke="#3F3D56" stroke-miterlimit="10"/>
<path d="M339.139 197.626C344.653 197.626 349.123 191.843 349.123 184.71C349.123 177.576 344.653 171.794 339.139 171.794C333.625 171.794 329.155 177.576 329.155 184.71C329.155 191.843 333.625 197.626 339.139 197.626Z" stroke="#3F3D56" stroke-miterlimit="10"/>
<path d="M313.298 233.439C323.353 233.439 331.504 228.707 331.504 222.871C331.504 217.035 323.353 212.303 313.298 212.303C303.242 212.303 295.091 217.035 295.091 222.871C295.091 228.707 303.242 233.439 313.298 233.439Z" stroke="#3F3D56" stroke-miterlimit="10"/>
<path d="M317.702 216.824C317.707 217.562 317.43 218.274 316.927 218.815C316.69 219.074 316.401 219.282 316.08 219.424C315.758 219.566 315.411 219.64 315.06 219.642H309.186C308.463 219.617 307.778 219.306 307.283 218.778C306.788 218.25 306.522 217.547 306.544 216.824C306.54 216.251 306.708 215.691 307.025 215.214C308.325 215.032 309.636 214.942 310.948 214.945C313.149 214.938 315.343 215.19 317.485 215.697C317.63 216.055 317.704 216.438 317.702 216.824Z" fill="white"/>
<path d="M284.813 183.829C286.435 183.829 287.75 182.515 287.75 180.894C287.75 179.272 286.435 177.958 284.813 177.958C283.191 177.958 281.877 179.272 281.877 180.894C281.877 182.515 283.191 183.829 284.813 183.829Z" fill="white"/>
<path d="M339.433 183.829C341.055 183.829 342.369 182.515 342.369 180.894C342.369 179.272 341.055 177.958 339.433 177.958C337.811 177.958 336.496 179.272 336.496 180.894C336.496 182.515 337.811 183.829 339.433 183.829Z" fill="white"/>
<path opacity="0.3" d="M342.369 211.423C343.991 211.423 345.306 210.108 345.306 208.487C345.306 206.866 343.991 205.552 342.369 205.552C340.748 205.552 339.433 206.866 339.433 208.487C339.433 210.108 340.748 211.423 342.369 211.423Z" fill="#6C63FF"/>
<path opacity="0.3" d="M270.718 211.423C272.34 211.423 273.654 210.108 273.654 208.487C273.654 206.866 272.34 205.552 270.718 205.552C269.096 205.552 267.781 206.866 267.781 208.487C267.781 210.108 269.096 211.423 270.718 211.423Z" fill="#6C63FF"/>
</g>
<defs>
<clipPath id="clip0">
<rect width="631" height="343" fill="white"/>
</clipPath>
</defs>
</svg>
